<svg xmlns="http://www.w3.org/2000/svg" viewBox="0 0 1200 320" role="img" aria-labelledby="title desc">
  <title>Marcel Marquez profile banner</title>
  <desc>Decorative banner for Marcel Marquez, Head of Engineering</desc>
  <defs>
    <linearGradient id="bg" x1="0%" y1="0%" x2="100%" y2="100%">
      <stop offset="0%" stop-color="#10233d" />
      <stop offset="58%" stop-color="#1c5360" />
      <stop offset="100%" stop-color="#ef7d32" />
    </linearGradient>
    <filter id="blur" x="-20%" y="-20%" width="140%" height="140%">
      <feGaussianBlur stdDeviation="28" />
    </filter>
  </defs>

  <rect width="1200" height="320" rx="30" fill="url(#bg)" />

  <circle cx="1020" cy="72" r="150" fill="#ffd6a8" fill-opacity="0.2" filter="url(#blur)" />
  <circle cx="160" cy="300" r="170" fill="#09111f" fill-opacity="0.45" filter="url(#blur)" />

  <g opacity="0.18" stroke="#f7f2eb" stroke-width="2" fill="none">
    <path d="M40 250 C210 170, 360 170, 520 250" />
    <path d="M520 250 C690 145, 860 145, 1035 250" />
    <path d="M770 50 L1100 50" />
    <path d="M820 95 L1140 95" />
    <path d="M860 140 L1110 140" />
  </g>

  <g transform="translate(74 62)">
    <rect width="172" height="38" rx="19" fill="#f7f2eb" fill-opacity="0.14" stroke="#f7f2eb" stroke-opacity="0.24" />
    <text x="20" y="25" fill="#f7f2eb" font-family="'Trebuchet MS', Verdana, sans-serif" font-size="18" letter-spacing="1.6">LILLE, FRANCE</text>

    <text x="0" y="103" fill="#fff8f0" font-family="Georgia, 'Times New Roman', serif" font-size="58" font-weight="700">Marcel Marquez</text>
    <text x="0" y="146" fill="#ffe8cf" font-family="'Trebuchet MS', Verdana, sans-serif" font-size="28">Engineering leadership with builder energy</text>
    <text x="0" y="192" fill="#f7f2eb" font-family="'Trebuchet MS', Verdana, sans-serif" font-size="22">Architecture, delivery, and product development for teams that need calm systems and fast outcomes.</text>
  </g>

  <g transform="translate(902 168)">
    <rect width="210" height="38" rx="19" fill="#10233d" fill-opacity="0.36" stroke="#f7f2eb" stroke-opacity="0.22" />
    <rect y="50" width="210" height="38" rx="19" fill="#10233d" fill-opacity="0.3" stroke="#f7f2eb" stroke-opacity="0.2" />
    <rect y="100" width="210" height="38" rx="19" fill="#10233d" fill-opacity="0.26" stroke="#f7f2eb" stroke-opacity="0.18" />
    <text x="26" y="25" fill="#fff8f0" font-family="'Trebuchet MS', Verdana, sans-serif" font-size="20">Leadership</text>
    <text x="26" y="75" fill="#fff8f0" font-family="'Trebuchet MS', Verdana, sans-serif" font-size="20">Architecture</text>
    <text x="26" y="125" fill="#fff8f0" font-family="'Trebuchet MS', Verdana, sans-serif" font-size="20">Delivery</text>
  </g>
</svg>
